<svg height="54" viewBox="0 0 170 54" width="170" xmlns="http://www.w3.org/2000/svg" xmlns:xlink="http://www.w3.org/1999/xlink"><g fill="#fff" fill-rule="evenodd"><path d="m114.441 26.332h3.8v-22.308h-3.8zm-15.378-1.601v-9.362h9.982v-1.602l-9.982-.004v-8.138h11.02l.002-1.601h-14.822v22.308h14.875v-1.602l-11.075.002zm31.775 0h-3.617v-19.114l3.623.007c6.832 0 8.345 4.952 8.345 9.556 0 5.008-1.818 9.55-8.35 9.55zm.169-20.707h-7.573v22.308l7.588-.003c11.1 0 11.966-9.091 11.966-11.148 0-2.702-1.263-11.157-11.981-11.157zm26.539 21.23c-7.583 0-8.342-6.909-8.342-10.073 0-2.969.668-10.077 8.33-10.077 7.583 0 8.343 6.91 8.343 10.077 0 2.964-.663 10.073-8.331 10.073zm-.006-21.544c-7.257 0-12.14 5.009-12.14 11.47 0 6.46 4.883 11.47 12.146 11.47 7.261 0 12.134-5.01 12.134-11.47 0-6.461-4.882-11.47-12.14-11.47zm-116.05-2.23s-2.506-1.569-6.653-1.477c-5.03.115-9.3 3.432-11.525 6.8-1.633 2.468-2.689 4.86-3.562 7.393-.572 1.653-1.582 4.015-2.367 5.77-1.624 3.616-4.414 6.7-8.787 6.441-4.451-.27-7.598-3.505-7.598-3.505l-.998 1.048c1.995 1.98 5.284 3.905 9.326 4.053 4.384.162 9.435-2.539 11.755-6.468.704-1.194 1.99-3.604 2.793-6.216 1.03-3.362 1.712-5.793 2.811-7.952 1.065-2.087 4.031-5.901 8.795-5.937 3.294-.023 5.425 1.242 5.425 1.242l.586-1.194zm20.245 24.852h3.8v-22.308h-3.8zm-8.98-12.393h-11.843v-9.915h-3.8v22.308h3.8v-10.79h11.846v10.79h3.8v-22.308h-3.8v9.915zm29.315-5.095c-.904 1.526-2.047 3.767-2.75 5.768-.659 1.863-1.842 5.11-2.302 6.187-1.43 3.343-2.658 4.81-5.518 4.7-1.815-.072-3.739-1.528-3.739-1.528l-.655.96c.527.49 2.476 1.84 5.14 1.887 3.283.062 5.659-1.628 7.316-4.026 1.193-1.727 2.289-4.335 3.258-6.927.934-2.5 1.76-5.612 2.833-7.707 1.083-2.12 2.758-3.336 4.78-3.336 1.51 0 2.645.593 2.645.593l.465-1.063s-1.65-.824-3.42-.785c-3.963.088-6.473 2.616-8.053 5.277zm-46.525 33.026c0-2.003-1.528-2.817-3.875-2.817h-4.216v10.017h2.023v-4.414h2.501c2.255 0 3.567-1.127 3.567-2.786m-1.96 0c0 1.205-.618 1.879-2.595 1.879h-1.513v-3.756h1.806c1.76 0 2.301.72 2.301 1.877m13.002 7.2-3.073-4.523c1.544-.33 2.393-1.503 2.393-2.63 0-2.347-1.96-2.864-3.89-2.864h-4.216v10.018h2.023v-4.414h1.45l2.811 4.414h2.502zm-2.64-7.215c0 1.315-.804 1.894-2.718 1.894h-1.405v-3.756h1.683c1.837 0 2.44.61 2.44 1.862zm15.438 2.16c0-2.974-2.362-5.274-5.712-5.274-2.75 0-5.652 1.893-5.652 5.415 0 2.958 2.378 5.228 5.682 5.228 3.428 0 5.682-2.396 5.682-5.369m-2.1.031c0 2.786-1.234 4.398-3.567 4.398-2.33 0-3.582-1.424-3.582-4.288 0-3.46 1.776-4.477 3.521-4.477 2.5 0 3.628 1.628 3.628 4.367m6.918-4.053v3.662h4.74v.939h-4.74v4.477h-2.038v-10.018h7.103v.94zm7.535 9.077v-10.016h7.365v.94h-5.327v3.317h5.019v.94h-5.019v3.88h5.482v.94zm13.109.313c-1.745 0-2.918-.688-3.89-1.83l.602-.595c.91 1.095 2.053 1.518 3.15 1.518 1.543 0 2.84-.689 2.84-2.02 0-.562-.556-1.064-1.42-1.298-1.699-.454-4.849-.955-4.849-3.35 0-1.831 1.9-3.067 4-3.067 1.45 0 2.701.5 3.736 1.565l-.555.578c-.974-.891-1.853-1.236-3.104-1.236-1.375 0-2.332.751-2.332 1.737 0 .517.293.971 1.266 1.236l2.409.643c1.776.469 2.533 1.425 2.533 2.786 0 1.956-1.792 3.333-4.386 3.333m9.512 0c-1.746 0-2.92-.688-3.892-1.83l.602-.595c.912 1.095 2.054 1.518 3.151 1.518 1.543 0 2.841-.689 2.841-2.02 0-.562-.557-1.064-1.42-1.298-1.7-.454-4.849-.955-4.849-3.35 0-1.831 1.899-3.067 3.999-3.067 1.451 0 2.702.5 3.737 1.565l-.557.578c-.972-.891-1.853-1.236-3.103-1.236-1.374 0-2.332.751-2.332 1.737 0 .517.294.971 1.266 1.236l2.409.643c1.776.469 2.532 1.425 2.532 2.786 0 1.956-1.79 3.333-4.384 3.333m7.164-.313h2.023v-10.017h-2.023zm16.166-5.055c0-2.974-2.362-5.274-5.713-5.274-2.748 0-5.65 1.893-5.65 5.415 0 2.958 2.377 5.228 5.681 5.228 3.428 0 5.682-2.396 5.682-5.369m-2.1.031c0 2.786-1.234 4.398-3.567 4.398-2.331 0-3.582-1.424-3.582-4.288 0-3.46 1.776-4.477 3.52-4.477 2.502 0 3.629 1.628 3.629 4.367m11.998 5.024-6.5-7.95v7.95h-.928v-10.016h1.885l6.13 7.529v-7.529h.925v10.018zm14.977 0-4.632-10.017h-1.9l-4.617 10.018h1.082l1.59-3.49h4.617l1.591 3.49h2.27zm-4.246-4.351h-3.846l1.916-4.226zm6.253 4.351v-10.016h2.023v9.078h5.033v.94z"/><path d="m15.694 35.678v16.682c0 .332.27.607.598.607h143.718a.608.608 0 0 0 .599-.607v-16.682a.609.609 0 0 0 -.6-.606h-143.716a.606.606 0 0 0 -.598.606zm.598 17.797a1.11 1.11 0 0 1 -1.1-1.115v-16.682a1.108 1.108 0 0 1 1.1-1.114h143.718a1.108 1.108 0 0 1 1.099 1.114v16.682a1.11 1.11 0 0 1 -1.1 1.115h-143.716z"/></g></svg>